<svg xmlns="http://www.w3.org/2000/svg" xmlns:xlink="http://www.w3.org/1999/xlink" viewBox="0 0 117 66"><g id="ss10650935403_1"><path d="M 0 66 L 0 0 L 117 0 L 117 66 Z" fill="transparent"></path><path d="M 0 62.309 L 0 3.689 C 0 1.652 1.647 0 3.679 0 L 113.202 0 C 116.985 0 118.306 5.037 115.012 6.904 L 64.957 36.424 C 61.663 38.29 62.984 43.327 66.767 43.327 L 113.321 43.327 C 115.353 43.327 117 44.979 117 47.016 L 117 62.311 C 117 64.348 115.353 66 113.321 66 L 3.679 66 C 1.647 66 0 64.348 0 62.311 Z M 40.887 41.103 L 60.66 29.503 C 63.894 27.599 62.547 22.63 58.796 22.63 L 39.023 22.63 C 36.992 22.63 35.345 24.282 35.345 26.319 L 35.345 37.92 C 35.345 40.772 38.434 42.546 40.887 41.102 Z" fill="rgb(207,255,0)"></path></g></svg>