<?xml version="1.0" encoding="UTF-8"?>
<!DOCTYPE svg PUBLIC "-//W3C//DTD SVG 1.1//EN" "http://www.w3.org/Graphics/SVG/1.1/DTD/svg11.dtd">
<svg xmlns="http://www.w3.org/2000/svg" version="1.1" width="92px" height="77px" style="shape-rendering:geometricPrecision; text-rendering:geometricPrecision; image-rendering:optimizeQuality; fill-rule:evenodd; clip-rule:evenodd" xmlns:xlink="http://www.w3.org/1999/xlink">
<g><path style="opacity:1" fill="#33373d" d="M -0.5,-0.5 C 30.1667,-0.5 60.8333,-0.5 91.5,-0.5C 91.5,18.1667 91.5,36.8333 91.5,55.5C 90.7321,54.7375 90.2321,53.7375 90,52.5C 88.5845,55.9582 88.0845,59.6249 88.5,63.5C 87.1667,63.5 85.8333,63.5 84.5,63.5C 84.4724,58.1383 84.8058,52.8049 85.5,47.5C 84.5,47.5 83.5,47.5 82.5,47.5C 82.8128,51.0419 82.4794,54.3752 81.5,57.5C 82.069,53.6707 81.4023,50.3373 79.5,47.5C 79.5,46.5 79.5,45.5 79.5,44.5C 70.0144,43.5062 60.3478,43.1729 50.5,43.5C 50.5,42.5 50.5,41.5 50.5,40.5C 52.9328,40.7271 54.5994,39.7271 55.5,37.5C 62.9364,32.6078 70.603,27.9411 78.5,23.5C 79.4519,21.9547 79.7852,20.288 79.5,18.5C 56.8309,18.3334 34.1642,18.5 11.5,19C 10.5109,31.7536 10.1776,44.5869 10.5,57.5C 10.5,57.8333 10.5,58.1667 10.5,58.5C 9.00136,59.6782 8.00136,61.3449 7.5,63.5C 6.51592,60.5719 6.18259,57.5719 6.5,54.5C 4.19438,54.9926 1.86105,55.3259 -0.5,55.5C -0.5,36.8333 -0.5,18.1667 -0.5,-0.5 Z"/></g>
<g><path style="opacity:1" fill="#cbf615" d="M 55.5,37.5 C 52.3611,38.4325 49.6945,40.0991 47.5,42.5C 47.7093,43.086 48.0426,43.586 48.5,44C 58.828,44.4998 69.1613,44.6665 79.5,44.5C 79.5,45.5 79.5,46.5 79.5,47.5C 79.5,51.1667 79.5,54.8333 79.5,58.5C 56.425,58.8224 33.425,58.4891 10.5,57.5C 10.1776,44.5869 10.5109,31.7536 11.5,19C 34.1642,18.5 56.8309,18.3334 79.5,18.5C 79.7852,20.288 79.4519,21.9547 78.5,23.5C 70.603,27.9411 62.9364,32.6078 55.5,37.5 Z"/></g>
<g><path style="opacity:1" fill="#374c08" d="M 31.5,33.5 C 36.3158,32.3503 41.3158,32.1837 46.5,33C 47.056,33.3826 47.3893,33.8826 47.5,34.5C 42.1951,33.8058 36.8617,33.4724 31.5,33.5 Z"/></g>
<g><path style="opacity:1" fill="#343c39" d="M 31.5,33.5 C 36.8617,33.4724 42.1951,33.8058 47.5,34.5C 47.6309,35.3764 47.2975,36.0431 46.5,36.5C 41.6686,39.3663 36.6686,41.6997 31.5,43.5C 31.5,40.1667 31.5,36.8333 31.5,33.5 Z"/></g>
<g><path style="opacity:1" fill="#32400c" d="M 55.5,37.5 C 54.5994,39.7271 52.9328,40.7271 50.5,40.5C 50.5,41.5 50.5,42.5 50.5,43.5C 60.3478,43.1729 70.0144,43.5062 79.5,44.5C 69.1613,44.6665 58.828,44.4998 48.5,44C 48.0426,43.586 47.7093,43.086 47.5,42.5C 49.6945,40.0991 52.3611,38.4325 55.5,37.5 Z"/></g>
<g><path style="opacity:1" fill="#333740" d="M 91.5,55.5 C 91.5,62.5 91.5,69.5 91.5,76.5C 60.8333,76.5 30.1667,76.5 -0.5,76.5C -0.5,69.5 -0.5,62.5 -0.5,55.5C 1.86105,55.3259 4.19438,54.9926 6.5,54.5C 6.18259,57.5719 6.51592,60.5719 7.5,63.5C 8.00136,61.3449 9.00136,59.6782 10.5,58.5C 33.5689,59.1715 56.7356,59.8381 80,60.5C 80.5133,59.4734 81.0133,58.4734 81.5,57.5C 82.4794,54.3752 82.8128,51.0419 82.5,47.5C 83.5,47.5 84.5,47.5 85.5,47.5C 84.8058,52.8049 84.4724,58.1383 84.5,63.5C 85.8333,63.5 87.1667,63.5 88.5,63.5C 88.0845,59.6249 88.5845,55.9582 90,52.5C 90.2321,53.7375 90.7321,54.7375 91.5,55.5 Z"/></g>
<g><path style="opacity:1" fill="#323e16" d="M 79.5,47.5 C 81.4023,50.3373 82.069,53.6707 81.5,57.5C 81.0133,58.4734 80.5133,59.4734 80,60.5C 56.7356,59.8381 33.5689,59.1715 10.5,58.5C 10.5,58.1667 10.5,57.8333 10.5,57.5C 33.425,58.4891 56.425,58.8224 79.5,58.5C 79.5,54.8333 79.5,51.1667 79.5,47.5 Z"/></g>
</svg>
